<?xml version="1.0" encoding="UTF-8" standalone="no"?>
<!DOCTYPE svg PUBLIC "-//W3C//DTD SVG 1.1//EN" "http://www.w3.org/Graphics/SVG/1.1/DTD/svg11.dtd">
<svg width="100%" height="100%" viewBox="0 0 48 48" version="1.1" xmlns="http://www.w3.org/2000/svg" xmlns:xlink="http://www.w3.org/1999/xlink" xml:space="preserve" xmlns:serif="http://www.serif.com/" style="fill-rule:evenodd;clip-rule:evenodd;stroke-linejoin:round;stroke-miterlimit:2;">
    <g transform="matrix(0.48,0,0,0.48,0,0)">
        <g>
            <g transform="matrix(1.32097,-0.364151,0.369431,1.34012,-49.4121,57.3713)">
                <path d="M66.288,19.786C80.572,19.786 92.969,22.378 99.125,26.116C102.031,27.88 103.584,29.948 103.584,32.071C103.584,34.193 102.031,36.262 99.125,38.026C92.969,41.763 80.572,44.355 66.288,44.355C52.003,44.355 39.607,41.763 33.451,38.026C30.545,36.262 28.992,34.193 28.992,32.071C28.992,29.948 30.545,27.88 33.451,26.116C39.607,22.378 52.003,19.786 66.288,19.786Z"/>
            </g>
            <g>
                <g transform="matrix(0.96404,-0.265757,0.157873,0.572689,-11.2635,42.1182)">
                    <path d="M79.009,-24.495L79.009,76.515C79.009,77.542 78.514,78.375 77.904,78.375L22.096,78.375C21.486,78.375 20.991,77.542 20.991,76.515L20.991,-24.495C20.991,-25.522 21.486,-26.355 22.096,-26.355L77.904,-26.355C78.514,-26.355 79.009,-25.522 79.009,-24.495Z"/>
                </g>
                <g transform="matrix(0.96404,-0.265757,0.280667,1.01813,-20.6591,8.03532)">
                    <path d="M50,67.009C61.037,67.009 70.611,68.958 75.368,71.739C77.772,73.144 79.009,74.824 79.009,76.515C79.009,78.206 77.772,79.886 75.368,81.292C70.611,84.072 61.037,86.021 50,86.021C38.963,86.021 29.389,84.072 24.632,81.292C22.228,79.886 20.991,78.206 20.991,76.515C20.991,74.824 22.228,73.144 24.632,71.739C29.389,68.958 38.963,67.009 50,67.009Z"/>
                </g>
            </g>
            <g transform="matrix(0.737207,-0.203226,0.206172,0.747896,-22.4086,4.28817)">
                <path d="M66.288,19.157C80.72,19.157 93.24,21.803 99.46,25.58C102.605,27.489 104.223,29.773 104.223,32.071C104.223,34.368 102.605,36.652 99.46,38.562C93.24,42.338 80.72,44.985 66.288,44.985C51.855,44.985 39.336,42.338 33.116,38.562C29.971,36.652 28.353,34.368 28.353,32.071C28.353,29.773 29.971,27.489 33.116,25.58C39.336,21.803 51.855,19.157 66.288,19.157Z"/>
            </g>
            <g transform="matrix(0.737207,-0.203226,0.206172,0.747896,-12.0936,41.7059)">
                <path d="M66.288,19.157C80.72,19.157 93.24,21.803 99.46,25.58C102.605,27.489 104.223,29.773 104.223,32.071C104.223,34.368 102.605,36.652 99.46,38.562C93.24,42.338 80.72,44.985 66.288,44.985C51.855,44.985 39.336,42.338 33.116,38.562C29.971,36.652 28.353,34.368 28.353,32.071C28.353,29.773 29.971,27.489 33.116,25.58C39.336,21.803 51.855,19.157 66.288,19.157Z"/>
            </g>
            <g transform="matrix(0.96404,-0.265757,0.447911,1.62481,-31.3059,-30.5862)">
                <path d="M79.009,55.682L79.009,59.142C79.009,59.504 78.514,59.797 77.904,59.797L74.369,59.797C73.759,59.797 73.264,59.504 73.264,59.142L73.264,55.682C73.264,55.32 73.759,55.026 74.369,55.026L77.904,55.026C78.514,55.026 79.009,55.32 79.009,55.682Z"/>
            </g>
            <g transform="matrix(0.96404,-0.265757,0.447911,1.62481,-81.6989,-16.6943)">
                <path d="M79.009,55.682L79.009,59.142C79.009,59.504 78.514,59.797 77.904,59.797L74.369,59.797C73.759,59.797 73.264,59.504 73.264,59.142L73.264,55.682C73.264,55.32 73.759,55.026 74.369,55.026L77.904,55.026C78.514,55.026 79.009,55.32 79.009,55.682Z"/>
            </g>
            <g transform="matrix(0.737207,-0.203226,0.206172,0.747896,-13.6434,36.0842)">
                <path d="M66.288,19.157C80.72,19.157 93.24,21.803 99.46,25.58C102.605,27.489 104.223,29.773 104.223,32.071C104.223,34.368 102.605,36.652 99.46,38.562C93.24,42.338 80.72,44.985 66.288,44.985C51.855,44.985 39.336,42.338 33.116,38.562C29.971,36.652 28.353,34.368 28.353,32.071C28.353,29.773 29.971,27.489 33.116,25.58C39.336,21.803 51.855,19.157 66.288,19.157Z"/>
            </g>
        </g>
        <g>
            <g transform="matrix(1.32097,-0.364151,0.369431,1.34012,-49.4121,57.3713)">
                <ellipse cx="66.288" cy="32.071" rx="36.49" ry="11.49" style="fill:white;"/>
            </g>
            <g>
                <g transform="matrix(0.96404,-0.265757,0.157873,0.572689,-11.2635,42.1182)">
                    <rect x="22.096" y="-24.495" width="55.808" height="101.01" style="fill:rgb(240,240,240);"/>
                </g>
                <g transform="matrix(0.96404,-0.265757,0.280667,1.01813,-20.6591,8.03532)">
                    <ellipse cx="50" cy="76.515" rx="27.904" ry="8.46" style="fill:rgb(240,240,240);"/>
                </g>
            </g>
            <g transform="matrix(0.737207,-0.203226,0.206172,0.747896,-22.4086,4.28817)">
                <ellipse cx="66.288" cy="32.071" rx="36.49" ry="11.49" style="fill:white;"/>
            </g>
            <g transform="matrix(0.737207,-0.203226,0.206172,0.747896,-12.0936,41.7059)">
                <ellipse cx="66.288" cy="32.071" rx="36.49" ry="11.49" style="fill:rgb(125,0,255);"/>
            </g>
            <g transform="matrix(0.96404,-0.265757,0.447911,1.62481,-31.3059,-30.5862)">
                <rect x="74.369" y="55.682" width="3.535" height="3.46" style="fill:rgb(125,0,255);"/>
            </g>
            <g transform="matrix(0.96404,-0.265757,0.447911,1.62481,-81.6989,-16.6943)">
                <rect x="74.369" y="55.682" width="3.535" height="3.46" style="fill:rgb(125,0,255);"/>
            </g>
            <g transform="matrix(0.737207,-0.203226,0.206172,0.747896,-13.6434,36.0842)">
                <ellipse cx="66.288" cy="32.071" rx="36.49" ry="11.49" style="fill:rgb(240,240,240);"/>
            </g>
        </g>
    </g>
</svg>
